<svg width="18" height="18" viewBox="0 0 18 18" fill="none" xmlns="http://www.w3.org/2000/svg">
<g clip-path="url(#clip0_252_24209)">
<path d="M2.83322 8.95677C2.1222 7.71698 1.77889 6.70461 1.57188 5.67841C1.26572 4.16068 1.96636 2.6781 3.12704 1.73211C3.61759 1.33229 4.17992 1.46889 4.47 1.9893L5.12489 3.16418C5.64397 4.09542 5.90351 4.56105 5.85203 5.05469C5.80055 5.54834 5.45053 5.9504 4.75048 6.7545L2.83322 8.95677ZM2.83322 8.95677C4.27238 11.4662 6.53088 13.7259 9.04323 15.1668M9.04323 15.1668C10.283 15.8778 11.2954 16.2211 12.3216 16.4281C13.8393 16.7343 15.3219 16.0336 16.2679 14.873C16.6677 14.3824 16.5311 13.8201 16.0107 13.53L14.8358 12.8751C13.9046 12.356 13.439 12.0965 12.9453 12.148C12.4517 12.1995 12.0496 12.5495 11.2455 13.2495L9.04323 15.1668Z" stroke="#141B34" stroke-width="1.5" stroke-linejoin="round"/>
</g>
<defs>
<clipPath id="clip0_252_24209">
<rect width="18" height="18" fill="white"/>
</clipPath>
</defs>
</svg>
