<svg width="20" height="21" viewBox="0 0 20 21" fill="none" xmlns="http://www.w3.org/2000/svg">
<path d="M10.0001 15.5C8.88963 16.0186 7.43097 16.3333 5.83341 16.3333C4.94515 16.3333 4.09982 16.236 3.33341 16.0605C2.84074 15.9476 2.59441 15.8912 2.29924 15.6577C2.13088 15.5245 1.92077 15.2608 1.82851 15.0669C1.66675 14.7271 1.66675 14.3975 1.66675 13.7383V4.76163C1.66675 3.94094 2.53344 3.37726 3.33341 3.56049C4.09982 3.73603 4.94515 3.83332 5.83341 3.83332C7.43097 3.83332 8.88963 3.51863 10.0001 2.99999C11.1105 2.48135 12.5692 2.16666 14.1667 2.16666C15.055 2.16666 15.9003 2.26395 16.6667 2.43949C17.1594 2.55233 17.4058 2.60875 17.7009 2.84231C17.8693 2.97552 18.0794 3.2392 18.1717 3.43304C18.3334 3.77291 18.3334 4.10248 18.3334 4.76163V13.7383C18.3334 14.559 17.4667 15.1227 16.6667 14.9395C15.9003 14.7639 15.055 14.6667 14.1667 14.6667C12.5692 14.6667 11.1105 14.9814 10.0001 15.5Z" stroke="#F4F4F4" stroke-width="1.5"/>
<path d="M1.66675 18C2.7772 18.5186 4.23586 18.8333 5.83342 18.8333C7.43097 18.8333 8.88963 18.5186 10.0001 18C11.1105 17.4813 12.5692 17.1666 14.1667 17.1666C15.7643 17.1666 17.223 17.4813 18.3334 18" stroke="#F4F4F4" stroke-width="1.5" stroke-linecap="round"/>
<path d="M12.0834 9.24999C12.0834 10.4006 11.1507 11.3333 10.0001 11.3333C8.84949 11.3333 7.91675 10.4006 7.91675 9.24999C7.91675 8.0994 8.84949 7.16666 10.0001 7.16666C11.1507 7.16666 12.0834 8.0994 12.0834 9.24999Z" stroke="#F4F4F4" stroke-width="1.5"/>
<path d="M4.5835 10.0833L4.5835 10.0908" stroke="#F4F4F4" stroke-width="2" stroke-linecap="round" stroke-linejoin="round"/>
<path d="M15.4167 8.41016L15.4167 8.41764" stroke="#F4F4F4" stroke-width="2" stroke-linecap="round" stroke-linejoin="round"/>
</svg>
