<svg width="34" height="33" viewBox="0 0 34 33" fill="none" xmlns="http://www.w3.org/2000/svg">
<g clip-path="url(#clip0_58_3595)">
<path d="M17 1.83333V31.1667" stroke="#F4F4F4" stroke-width="2" stroke-linecap="round" stroke-linejoin="round"/>
<path d="M24.0833 7.16667H13.4583C12.1433 7.16667 10.8821 7.65834 9.95226 8.53351C9.02239 9.40868 8.5 10.5957 8.5 11.8333C8.5 13.071 9.02239 14.258 9.95226 15.1332C10.8821 16.0083 12.1433 16.5 13.4583 16.5H20.5417C21.8567 16.5 23.1179 16.9917 24.0477 17.8668C24.9776 18.742 25.5 19.929 25.5 21.1667C25.5 22.4043 24.9776 23.5913 24.0477 24.4665C23.1179 25.3417 21.8567 25.8333 20.5417 25.8333H8.5" stroke="#F4F4F4" stroke-width="2" stroke-linecap="round" stroke-linejoin="round"/>
</g>
<defs>
<clipPath id="clip0_58_3595">
<rect width="34" height="32" fill="white" transform="translate(0 0.5)"/>
</clipPath>
</defs>
</svg>
