<svg width="20" height="17" viewBox="0 0 20 17" fill="none" xmlns="http://www.w3.org/2000/svg">
<path d="M15 0.75H5C2.381 0.75 0.25 2.881 0.25 5.5V11.5C0.25 14.119 2.381 16.25 5 16.25H15C17.619 16.25 19.75 14.119 19.75 11.5V5.5C19.75 2.881 17.619 0.75 15 0.75ZM5 2.25H15C16.354 2.25 17.515 3.08394 18.003 4.26294L11.803 8.39697C10.708 9.12597 9.292 9.12597 8.198 8.39697L1.99799 4.26294C2.48499 3.08294 3.646 2.25 5 2.25ZM15 14.75H5C3.208 14.75 1.75 13.292 1.75 11.5V5.901L7.36499 9.64502C8.16499 10.178 9.082 10.4449 10 10.4449C10.917 10.4449 11.834 10.178 12.635 9.64502L18.25 5.901V11.5C18.25 13.292 16.792 14.75 15 14.75Z" fill="#F4F4F4"/>
</svg>
