<svg width="16" height="17" viewBox="0 0 16 17" fill="none" xmlns="http://www.w3.org/2000/svg">
<path d="M5.33341 7.16668H10.6667M5.33341 12.5H10.6667M5.33341 9.83334H8.00008M2.66675 14.7667V2.23334C2.66675 2.12726 2.70889 2.02552 2.78391 1.9505C2.85892 1.87549 2.96066 1.83334 3.06675 1.83334H10.8347C10.9408 1.83344 11.0425 1.87564 11.1174 1.95068L13.2161 4.04934C13.2534 4.08661 13.283 4.13089 13.3031 4.17963C13.3232 4.22837 13.3335 4.28061 13.3334 4.33334V14.7667C13.3334 14.8192 13.3231 14.8712 13.303 14.9197C13.2829 14.9683 13.2534 15.0124 13.2163 15.0495C13.1791 15.0867 13.135 15.1161 13.0865 15.1362C13.038 15.1563 12.9859 15.1667 12.9334 15.1667H3.06675C3.01422 15.1667 2.9622 15.1563 2.91367 15.1362C2.86514 15.1161 2.82105 15.0867 2.78391 15.0495C2.74676 15.0124 2.7173 14.9683 2.6972 14.9197C2.67709 14.8712 2.66675 14.8192 2.66675 14.7667Z" stroke="#F4F4F4" stroke-width="1.5" stroke-linecap="round" stroke-linejoin="round"/>
<path d="M10.6667 1.83334V4.10001C10.6667 4.2061 10.7089 4.30784 10.7839 4.38285C10.8589 4.45787 10.9607 4.50001 11.0667 4.50001H13.3334" stroke="#F4F4F4" stroke-width="1.5" stroke-linecap="round" stroke-linejoin="round"/>
</svg>
