<svg width="45" height="46" viewBox="0 0 45 46" fill="none" xmlns="http://www.w3.org/2000/svg">
<path d="M37.5 23V41.75H7.5V23" stroke="#F4F4F4" stroke-width="2" stroke-linecap="round" stroke-linejoin="round"/>
<path d="M41.25 13.625H3.75V23H41.25V13.625Z" stroke="#F4F4F4" stroke-width="2" stroke-linecap="round" stroke-linejoin="round"/>
<path d="M22.5 41.75V13.625" stroke="#F4F4F4" stroke-width="2" stroke-linecap="round" stroke-linejoin="round"/>
<path d="M22.5 13.625H14.0625C12.8193 13.625 11.627 13.1311 10.7479 12.2521C9.86886 11.373 9.375 10.1807 9.375 8.9375C9.375 7.6943 9.86886 6.50201 10.7479 5.62294C11.627 4.74386 12.8193 4.25 14.0625 4.25C20.625 4.25 22.5 13.625 22.5 13.625Z" stroke="#F4F4F4" stroke-width="2" stroke-linecap="round" stroke-linejoin="round"/>
<path d="M22.5 13.625H30.9375C32.1807 13.625 33.373 13.1311 34.2521 12.2521C35.1311 11.373 35.625 10.1807 35.625 8.9375C35.625 7.6943 35.1311 6.50201 34.2521 5.62294C33.373 4.74386 32.1807 4.25 30.9375 4.25C24.375 4.25 22.5 13.625 22.5 13.625Z" stroke="#F4F4F4" stroke-width="2" stroke-linecap="round" stroke-linejoin="round"/>
</svg>
