<svg width="31" height="30" viewBox="0 0 31 30" fill="none" xmlns="http://www.w3.org/2000/svg">
<path d="M3.625 15C3.625 9.40207 3.625 6.60311 5.36405 4.86405C7.10311 3.125 9.90207 3.125 15.5 3.125C21.0979 3.125 23.8969 3.125 25.6359 4.86405C27.375 6.60311 27.375 9.40207 27.375 15C27.375 20.5979 27.375 23.3969 25.6359 25.1359C23.8969 26.875 21.0979 26.875 15.5 26.875C9.90207 26.875 7.10311 26.875 5.36405 25.1359C3.625 23.3969 3.625 20.5979 3.625 15Z" stroke="#F4F4F4" stroke-width="3" stroke-linejoin="round"/>
<path d="M21.125 15C21.125 18.1066 18.6066 20.625 15.5 20.625C12.3934 20.625 9.875 18.1066 9.875 15C9.875 11.8934 12.3934 9.375 15.5 9.375C18.6066 9.375 21.125 11.8934 21.125 15Z" stroke="#F4F4F4" stroke-width="1.5"/>
<path d="M22.3848 8.125L22.3735 8.125" stroke="#F4F4F4" stroke-width="3" stroke-linecap="round" stroke-linejoin="round"/>
</svg>
