<svg width="18" height="18" viewBox="0 0 18 18" fill="none" xmlns="http://www.w3.org/2000/svg">
<path d="M1.5 14.25L6.68477 10.7178C8.57899 9.42739 9.42101 9.42739 11.3152 10.7178L16.5 14.25" stroke="#141B34" stroke-width="1.5" stroke-linejoin="round"/>
<path d="M1.51194 10.9132C1.5614 13.1882 1.58613 14.3257 2.43458 15.1681C3.28304 16.0105 4.46387 16.0397 6.82554 16.098C8.27948 16.134 9.72052 16.134 11.1745 16.098C13.5361 16.0397 14.717 16.0105 15.5654 15.1681C16.4139 14.3257 16.4386 13.1882 16.4881 10.9132C16.5123 9.79868 16.4996 8.69507 16.4501 7.56908C16.4193 6.86973 16.4039 6.52006 16.2266 6.20988C16.0492 5.89971 15.7435 5.69952 15.132 5.29913L12.3114 3.45215C10.7057 2.40072 9.90282 1.875 9 1.875C8.09718 1.875 7.29433 2.40072 5.68862 3.45215L2.86798 5.29913C2.25652 5.69951 1.95079 5.89971 1.77344 6.20988C1.59609 6.52006 1.5807 6.86973 1.54992 7.56909C1.50037 8.69507 1.48771 9.79868 1.51194 10.9132Z" stroke="#646464" stroke-width="1.5" stroke-linejoin="round"/>
<path d="M16.5 7.125L13.301 9.45541C12.5253 10.0204 11.8878 10.5 10.875 10.5M1.5 7.125L4.69903 9.45541C5.47467 10.0204 6.11221 10.5 7.125 10.5" stroke="#141B34" stroke-width="1.5" stroke-linejoin="round"/>
</svg>
