<svg width="30" height="20" viewBox="0 0 30 20" fill="none" xmlns="http://www.w3.org/2000/svg">
<g clip-path="url(#clip0_366_1773)">
<path d="M1.53846 0.384613H28.4615C29.3112 0.384613 30 1.07342 30 1.92307V18.0769C30 18.9266 29.3112 19.6154 28.4615 19.6154H1.53846C0.688808 19.6154 0 18.9266 0 18.0769V1.92307C0 1.07342 0.688808 0.384613 1.53846 0.384613Z" fill="#16366F"/>
<path d="M17.27 10C17.27 13.8132 14.1788 16.9039 10.3658 16.9039C6.55268 16.9039 3.46191 13.813 3.46191 10C3.46191 6.1872 6.55276 3.09616 10.3658 3.09616C14.1787 3.09616 17.27 6.18731 17.27 10Z" fill="#D9222A"/>
<path d="M19.6345 3.09601C17.8506 3.09601 16.2251 3.77278 14.9999 4.88316C14.7502 5.10966 14.5172 5.35382 14.3027 5.61378H15.6976C15.8886 5.84597 16.0644 6.09024 16.2239 6.34505H13.7764C13.6292 6.58047 13.4964 6.82462 13.3787 7.07612H16.6215C16.7327 7.31401 16.8304 7.55805 16.9138 7.80705H13.0864C13.006 8.04685 12.939 8.29093 12.8857 8.53816H17.1142C17.2176 9.01855 17.2697 9.50858 17.2696 10C17.2696 10.7667 17.1445 11.5044 16.9137 12.1931H13.0863C13.1695 12.4423 13.2671 12.6864 13.3784 12.9242H16.6214C16.5035 13.1758 16.3706 13.42 16.2234 13.6555H13.7763C13.9361 13.9105 14.1121 14.1547 14.3027 14.3861H15.6972C15.483 14.6466 15.2499 14.891 14.9999 15.1174C16.2253 16.2276 17.8506 16.904 19.6345 16.904C23.4475 16.904 26.5387 13.8132 26.5387 10.0002C26.5387 6.18751 23.4476 3.09635 19.6345 3.09635" fill="#EE9F2D"/>
<path d="M25.6185 13.8485C25.6185 13.7254 25.7182 13.6254 25.8414 13.6254C25.9646 13.6254 26.0643 13.7254 26.0643 13.8485C26.0643 13.9715 25.9646 14.0715 25.8414 14.0715C25.7183 14.0715 25.6185 13.9716 25.6185 13.8485ZM25.8414 14.018C25.9351 14.018 26.0109 13.942 26.011 13.8485C26.011 13.7549 25.9351 13.6791 25.8416 13.6791H25.8414C25.748 13.6789 25.6722 13.7546 25.672 13.848V13.8485C25.6719 13.942 25.7477 14.018 25.8412 14.018C25.8413 14.018 25.8413 14.018 25.8414 14.018ZM25.8113 13.9465H25.7656V13.7505H25.8483C25.8656 13.7505 25.8832 13.7505 25.8985 13.7603C25.9143 13.771 25.9233 13.7899 25.9233 13.8095C25.9233 13.8314 25.9103 13.8519 25.8893 13.8599L25.9254 13.9465H25.8748L25.8448 13.8689H25.8113L25.8113 13.9465ZM25.8113 13.8353H25.8366C25.8461 13.8353 25.856 13.8361 25.8645 13.8315C25.872 13.8267 25.8759 13.8177 25.8759 13.809C25.8759 13.8015 25.8713 13.7929 25.8648 13.7892C25.8568 13.7841 25.8442 13.7853 25.8356 13.7853H25.8113V13.8353ZM8.75361 10.756C8.67496 10.7469 8.64034 10.7444 8.5863 10.7444C8.1615 10.7444 7.94642 10.8901 7.94642 11.1778C7.94642 11.3551 8.05142 11.468 8.21515 11.468C8.52046 11.468 8.7405 11.1772 8.75361 10.756ZM9.29865 12.025H8.67765L8.69192 11.7298C8.5025 11.9632 8.24977 12.074 7.90634 12.074C7.50011 12.074 7.22157 11.7567 7.22157 11.296C7.22157 10.6028 7.70604 10.1983 8.53761 10.1983C8.62254 10.1983 8.7315 10.206 8.84304 10.2202C8.86631 10.1263 8.87238 10.0861 8.87238 10.0356C8.87238 9.84681 8.74177 9.77643 8.39161 9.77643C8.02496 9.77227 7.72254 9.86377 7.59834 9.90466C7.60619 9.85735 7.70219 9.26397 7.70219 9.26397C8.07573 9.15451 8.32207 9.11331 8.5993 9.11331C9.24288 9.11331 9.58377 9.40224 9.58315 9.94839C9.58438 10.0947 9.56019 10.2753 9.52238 10.5127C9.4573 10.9254 9.31777 11.8095 9.29865 12.025ZM6.90796 12.025H6.15842L6.58777 9.33285L5.62911 12.025H5.11834L5.05527 9.34824L4.60396 12.025H3.90234L4.48842 8.52297H5.56611L5.6315 10.4832L6.28888 8.52297H7.48761L6.90796 12.025ZM20.561 10.756C20.4827 10.7469 20.4479 10.7444 20.394 10.7444C19.9694 10.7444 19.7543 10.8901 19.7543 11.1778C19.7543 11.3551 19.8591 11.468 20.0228 11.468C20.3282 11.468 20.5484 11.1772 20.561 10.756ZM21.1065 12.025H20.4856L20.4996 11.7298C20.3102 11.9632 20.0573 12.074 19.7142 12.074C19.3078 12.074 19.0296 11.7567 19.0296 11.296C19.0296 10.6028 19.5137 10.1983 20.3455 10.1983C20.4304 10.1983 20.5392 10.206 20.6506 10.2202C20.6738 10.1263 20.68 10.0861 20.68 10.0356C20.68 9.84681 20.5495 9.77643 20.1993 9.77643C19.8327 9.77227 19.5306 9.86377 19.4059 9.90466C19.4138 9.85735 19.5101 9.26397 19.5101 9.26397C19.8837 9.15451 20.1298 9.11331 20.4067 9.11331C21.0506 9.11331 21.3915 9.40224 21.3908 9.94839C21.3921 10.0947 21.3679 10.2753 21.3301 10.5127C21.2654 10.9254 21.1255 11.8095 21.1065 12.025ZM12.63 11.9818C12.4248 12.0464 12.2649 12.074 12.0915 12.074C11.7083 12.074 11.4992 11.8539 11.4992 11.4484C11.4938 11.3226 11.5543 10.9915 11.6019 10.6893C11.6452 10.4232 11.9269 8.74581 11.9269 8.74581H12.672L12.585 9.17693H13.035L12.9333 9.86139H12.4817C12.3952 10.403 12.2719 11.0777 12.2705 11.1672C12.2705 11.314 12.3488 11.378 12.527 11.378C12.6125 11.378 12.6786 11.3694 12.7292 11.3511L12.63 11.9818ZM14.9143 11.9587C14.6583 12.0369 14.4114 12.0747 14.1497 12.0741C13.3157 12.0733 12.881 11.6377 12.881 10.8036C12.881 9.83004 13.434 9.11335 14.1848 9.11335C14.799 9.11335 15.1913 9.51462 15.1913 10.144C15.1913 10.3528 15.1644 10.5566 15.0995 10.8444H13.6159C13.5657 11.2576 13.8301 11.4297 14.2635 11.4297C14.5302 11.4297 14.7707 11.3747 15.0382 11.2504L14.9143 11.9587ZM14.4955 10.2702C14.4997 10.2109 14.5745 9.76189 14.1489 9.76189C13.9115 9.76189 13.7418 9.94281 13.6727 10.2702H14.4955ZM9.74861 10.0773C9.74861 10.4375 9.92327 10.6859 10.3194 10.8725C10.623 11.0152 10.6699 11.0575 10.6699 11.1867C10.6699 11.3643 10.5361 11.4444 10.2395 11.4444C10.0159 11.4444 9.80792 11.4095 9.568 11.3321C9.568 11.3321 9.46942 11.9598 9.46492 11.9899C9.63531 12.027 9.78723 12.0614 10.2449 12.0741C11.0358 12.0741 11.401 11.773 11.401 11.1222C11.401 10.7308 11.2481 10.5012 10.8727 10.3286C10.5584 10.1844 10.5223 10.1521 10.5223 10.0191C10.5223 9.86512 10.6468 9.78658 10.8892 9.78658C11.0363 9.78658 11.2372 9.80227 11.4276 9.82939L11.5343 9.16881C11.3403 9.13804 11.046 9.11335 10.8747 9.11335C10.0363 9.11335 9.74604 9.55131 9.74861 10.0773ZM18.5598 9.1882C18.768 9.1882 18.962 9.24281 19.2295 9.37743L19.3521 8.61735C19.2423 8.57427 18.8558 8.3212 18.5284 8.3212C18.0268 8.3212 17.6028 8.57004 17.3045 8.98081C16.8695 8.83674 16.6907 9.12793 16.4715 9.41801L16.2768 9.46335C16.2915 9.36785 16.3049 9.27297 16.3004 9.17697H15.6121C15.518 10.0584 15.3513 10.9512 15.2209 11.8337L15.1869 12.0251H15.9367C16.0619 11.2119 16.1305 10.6912 16.1722 10.3389L16.4545 10.1818C16.4967 10.0249 16.6287 9.97185 16.8936 9.97824C16.858 10.1709 16.8402 10.3663 16.8404 10.5622C16.8404 11.494 17.3432 12.0741 18.15 12.0741C18.3579 12.0741 18.5363 12.0467 18.8124 11.9719L18.9443 11.1734C18.6959 11.2957 18.492 11.3533 18.3074 11.3533C17.8717 11.3533 17.608 11.0317 17.608 10.5C17.608 9.72889 18.0002 9.1882 18.5598 9.1882Z" fill="black"/>
<path d="M7.12378 11.8169H6.37413L6.80374 9.12508L5.84509 11.8169H5.33424L5.27109 9.14046L4.81982 11.8169H4.11816L4.70424 8.31531H5.78193L5.81224 10.4831L6.53932 8.31531H7.70343L7.12378 11.8169Z" fill="white"/>
<path d="M24.905 8.52307L24.7389 9.53492C24.5339 9.26523 24.3137 9.07003 24.023 9.07003C23.6448 9.07003 23.3006 9.35672 23.0753 9.77869C22.7615 9.71361 22.4369 9.60319 22.4369 9.60319L22.4368 9.60576C22.4621 9.36988 22.4721 9.22596 22.4699 9.17707H21.7814C21.6877 10.0585 21.5211 10.9513 21.3908 11.8338L21.3564 12.0252H22.1061C22.2074 11.3676 22.285 10.8216 22.342 10.3886C22.5981 10.1572 22.7263 9.95526 22.9851 9.96872C22.8706 10.2459 22.8034 10.565 22.8034 10.8925C22.8034 11.6045 23.1637 12.0742 23.7086 12.0742C23.9832 12.0742 24.1939 11.9795 24.3996 11.76L24.3645 12.0247H25.0734L25.6443 8.52307H24.905ZM23.9677 11.367C23.7125 11.367 23.5837 11.1782 23.5837 10.8056C23.5837 10.2458 23.8249 9.84884 24.1649 9.84884C24.4224 9.84884 24.5619 10.0451 24.5619 10.4068C24.5619 10.9715 24.3169 11.367 23.9677 11.367Z" fill="black"/>
<path d="M8.96923 10.5484C8.89069 10.5394 8.85592 10.5369 8.80208 10.5369C8.37723 10.5369 8.16231 10.6826 8.16231 10.9703C8.16231 11.1473 8.26731 11.2605 8.43077 11.2605C8.73635 11.2605 8.95638 10.9698 8.96923 10.5484ZM9.51458 11.8171H8.89358L8.90769 11.5223C8.71842 11.7552 8.46538 11.8666 8.12227 11.8666C7.71585 11.8666 7.4375 11.5493 7.4375 11.0885C7.4375 10.395 7.92177 9.99075 8.7535 9.99075C8.83846 9.99075 8.94742 9.99844 9.05881 10.0127C9.08204 9.91879 9.08812 9.8786 9.08812 9.82779C9.08812 9.63902 8.95769 9.56895 8.6075 9.56895C8.24069 9.56479 7.93846 9.65633 7.81408 9.69671C7.82192 9.64956 7.91792 9.05679 7.91792 9.05679C8.29135 8.94687 8.53796 8.90564 8.81488 8.90564C9.45865 8.90564 9.79965 9.19479 9.79904 9.74045C9.80015 9.88737 9.77577 10.0678 9.73812 10.3049C9.67323 10.7174 9.5335 11.602 9.51458 11.8171ZM19.5677 8.40968L19.4449 9.16995C19.1776 9.03548 18.9833 8.98068 18.7754 8.98068C18.2157 8.98068 17.8235 9.52137 17.8235 10.2925C17.8235 10.8241 18.0872 11.1456 18.5228 11.1456C18.7074 11.1456 18.9111 11.0882 19.1595 10.9657L19.028 11.7638C18.7517 11.8391 18.5735 11.8666 18.3654 11.8666C17.5587 11.8666 17.0558 11.2864 17.0558 10.3547C17.0558 9.10275 17.7504 8.22775 18.7438 8.22775C19.071 8.22779 19.4577 8.36656 19.5677 8.40968ZM20.777 10.5484C20.6985 10.5394 20.6638 10.5369 20.6098 10.5369C20.1851 10.5369 19.97 10.6826 19.97 10.9703C19.97 11.1473 20.075 11.2605 20.2387 11.2605C20.5439 11.2605 20.7641 10.9698 20.777 10.5484ZM21.3223 11.8171H20.7012L20.7154 11.5223C20.526 11.7552 20.2731 11.8666 19.93 11.8666C19.5237 11.8666 19.2452 11.5493 19.2452 11.0885C19.2452 10.395 19.7297 9.99075 20.5611 9.99075C20.6462 9.99075 20.755 9.99844 20.8665 10.0127C20.8896 9.91879 20.8958 9.8786 20.8958 9.82779C20.8958 9.63902 20.7654 9.56895 20.4152 9.56895C20.0486 9.56479 19.7462 9.65633 19.6218 9.69671C19.6297 9.64956 19.7258 9.05679 19.7258 9.05679C20.0992 8.94687 20.3457 8.90564 20.6226 8.90564C21.2665 8.90564 21.6073 9.19479 21.6065 9.74045C21.6078 9.88737 21.5837 10.0678 21.5458 10.3049C21.4811 10.7174 21.341 11.602 21.3223 11.8171ZM12.8458 11.7739C12.6405 11.8385 12.4805 11.8666 12.3073 11.8666C11.9241 11.8666 11.715 11.6463 11.715 11.2409C11.7097 11.1148 11.7703 10.784 11.8179 10.4818C11.861 10.2154 12.1427 8.53821 12.1427 8.53821H12.8876L12.8007 8.96944H13.1831L13.0813 9.6536H12.6977C12.6112 10.1956 12.4876 10.8697 12.4863 10.9593C12.4863 11.1066 12.5648 11.1702 12.7429 11.1702C12.8283 11.1702 12.8943 11.1619 12.945 11.1436L12.8458 11.7739ZM15.1301 11.7512C14.8743 11.8294 14.627 11.8671 14.3655 11.8666C13.5315 11.8658 13.0967 11.4302 13.0967 10.5961C13.0967 9.62218 13.6498 8.90568 14.4006 8.90568C15.0148 8.90568 15.4071 9.30679 15.4071 9.93645C15.4071 10.1454 15.3802 10.3493 15.3155 10.6369H13.8318C13.7816 11.05 14.046 11.2223 14.4794 11.2223C14.746 11.2223 14.9867 11.1672 15.2539 11.0425L15.1301 11.7512ZM14.7112 10.0623C14.7157 10.0031 14.7903 9.55391 14.3645 9.55391C14.1273 9.55391 13.9576 9.73533 13.8885 10.0623H14.7112ZM9.96423 9.86979C9.96423 10.23 10.1389 10.4781 10.5351 10.665C10.8386 10.8076 10.8855 10.8501 10.8855 10.9792C10.8855 11.1568 10.7516 11.2369 10.4553 11.2369C10.2315 11.2369 10.0235 11.202 9.78346 11.1246C9.78346 11.1246 9.68523 11.7523 9.68077 11.7823C9.85077 11.8195 10.0028 11.8534 10.4605 11.8666C11.2516 11.8666 11.6167 11.5654 11.6167 10.9148C11.6167 10.5233 11.4639 10.2936 11.0883 10.1211C10.7742 9.97652 10.7378 9.94479 10.7378 9.8116C10.7378 9.65775 10.8626 9.5786 11.1048 9.5786C11.2517 9.5786 11.4527 9.59475 11.6434 9.62187L11.75 8.9611C11.5561 8.93033 11.2618 8.90568 11.0905 8.90568C10.2519 8.90568 9.96185 9.34333 9.96423 9.86979ZM25.2892 11.8171H24.5801L24.6154 11.5519C24.4097 11.7718 24.199 11.8666 23.9243 11.8666C23.3794 11.8666 23.0193 11.3968 23.0193 10.6848C23.0193 9.73752 23.5778 8.93894 24.2389 8.93894C24.5296 8.93894 24.7497 9.05771 24.9545 9.32725L25.1208 8.31541H25.8601L25.2892 11.8171ZM24.1837 11.159C24.5327 11.159 24.7779 10.7635 24.7779 10.1993C24.7779 9.83756 24.6383 9.64125 24.3808 9.64125C24.0408 9.64125 23.7994 10.0381 23.7994 10.598C23.7993 10.9705 23.9285 11.159 24.1837 11.159ZM21.9974 8.96944C21.9036 9.85087 21.7369 10.7437 21.6065 11.6257L21.5723 11.8171H22.3219C22.59 10.0757 22.6549 9.73564 23.0753 9.77825C23.1423 9.42187 23.2669 9.10968 23.3599 8.95214C23.0459 8.88675 22.8706 9.06418 22.6411 9.40118C22.6592 9.25552 22.6924 9.11402 22.6858 8.96944H21.9974ZM15.8274 8.96944C15.7333 9.85087 15.5666 10.7437 15.4363 11.6257L15.4022 11.8171H16.1522C16.42 10.0757 16.4848 9.73564 16.9049 9.77825C16.9722 9.42187 17.0969 9.10968 17.1895 8.95214C16.8759 8.88675 16.7004 9.06418 16.4711 9.40118C16.4892 9.25552 16.5221 9.11402 16.5158 8.96944H15.8274ZM25.6185 11.5941C25.6185 11.4705 25.7184 11.3711 25.8415 11.3711C25.9644 11.3709 26.0642 11.4706 26.0643 11.5936V11.5941C26.0643 11.7172 25.9645 11.817 25.8415 11.8171C25.7184 11.817 25.6186 11.7172 25.6185 11.5941ZM25.8415 11.7635C25.935 11.7636 26.0108 11.6878 26.0108 11.5943V11.5942C26.0109 11.5006 25.9351 11.4247 25.8416 11.4246H25.8415C25.7478 11.4247 25.6719 11.5006 25.6719 11.5942C25.672 11.6877 25.7479 11.7635 25.8415 11.7635ZM25.8113 11.6916H25.7656V11.4961H25.8485C25.8656 11.4961 25.8834 11.4964 25.8983 11.5058C25.9143 11.5167 25.9235 11.5353 25.9235 11.5548C25.9235 11.5769 25.9105 11.5976 25.8893 11.6055L25.9255 11.6915H25.8748L25.8448 11.6143H25.8113V11.6915V11.6916ZM25.8113 11.5808H25.8365C25.8459 11.5808 25.8562 11.5815 25.8645 11.577C25.872 11.5722 25.8758 11.5631 25.8758 11.5544C25.8755 11.5463 25.8714 11.5389 25.8648 11.5343C25.857 11.5298 25.844 11.531 25.8355 11.531H25.8113L25.8113 11.5808Z" fill="white"/>
</g>
<defs>
<clipPath id="clip0_366_1773">
<rect width="30" height="19.2308" fill="white" transform="translate(0 0.384613)"/>
</clipPath>
</defs>
</svg>
