<svg width="18" height="18" viewBox="0 0 18 18" fill="none" xmlns="http://www.w3.org/2000/svg">
<g clip-path="url(#clip0_263_1570)">
<path d="M16.4698 8.22804C16.5101 8.85069 16.5101 9.49551 16.4698 10.1182C16.2642 13.2999 13.7652 15.8344 10.628 16.0429C9.55764 16.114 8.44018 16.1139 7.37205 16.0429C7.00422 16.0184 6.6033 15.9307 6.25801 15.7885C5.87383 15.6302 5.6817 15.5511 5.58408 15.5631C5.48645 15.5751 5.3448 15.6796 5.06151 15.8885C4.56201 16.2568 3.93275 16.5214 2.99957 16.4986C2.52769 16.4872 2.29176 16.4814 2.18613 16.3013C2.08051 16.1212 2.21206 15.8719 2.47516 15.3734C2.84006 14.6819 3.07126 13.8902 2.72093 13.256C2.11757 12.35 1.60507 11.277 1.53018 10.1182C1.48994 9.49551 1.48994 8.85069 1.53018 8.22804C1.73581 5.04628 4.23479 2.51185 7.37205 2.30331C8.27389 2.24336 8.4609 2.23392 9.375 2.27526" stroke="#646464" stroke-width="1.5" stroke-linecap="round" stroke-linejoin="round"/>
<path d="M16.5 4.125C16.5 5.57475 15.3247 6.75 13.875 6.75C12.4253 6.75 11.25 5.57475 11.25 4.125C11.25 2.67525 12.4253 1.5 13.875 1.5C15.3247 1.5 16.5 2.67525 16.5 4.125Z" stroke="#646464" stroke-width="1.5"/>
</g>
<defs>
<clipPath id="clip0_263_1570">
<rect width="18" height="18" fill="white"/>
</clipPath>
</defs>
</svg>
