<svg width="30" height="20" viewBox="0 0 30 20" fill="none" xmlns="http://www.w3.org/2000/svg">
<g clip-path="url(#clip0_366_1783)">
<path d="M6.47589 6.91731C6.15285 6.69523 5.73131 6.58392 5.21127 6.58392H3.19796C3.03854 6.58392 2.95046 6.66365 2.93373 6.82292L2.11585 11.9568C2.10735 12.0072 2.11996 12.0533 2.15358 12.0952C2.187 12.1373 2.22904 12.1582 2.27939 12.1582H3.23569C3.40343 12.1582 3.49562 12.0786 3.51254 11.9191L3.739 10.535C3.74727 10.468 3.77677 10.4134 3.82712 10.3714C3.87743 10.3295 3.94035 10.302 4.01585 10.2895C4.09135 10.277 4.16254 10.2708 4.22977 10.2708C4.29681 10.2708 4.37646 10.275 4.46889 10.2833C4.56108 10.2917 4.61985 10.2958 4.64504 10.2958C5.36643 10.2958 5.93266 10.0925 6.34377 9.68558C6.75469 9.27877 6.96039 8.71465 6.96039 7.99312C6.96039 7.49819 6.79877 7.13958 6.47589 6.91715V6.91731ZM5.43781 8.45885C5.39573 8.7525 5.28681 8.94535 5.11066 9.03765C4.93446 9.13008 4.68281 9.176 4.35569 9.176L3.94043 9.18862L4.15439 7.84219C4.17108 7.75 4.22558 7.70385 4.31793 7.70385H4.55708C4.89246 7.70385 5.13589 7.75219 5.28689 7.8485C5.43781 7.94504 5.48816 8.14858 5.43781 8.45885Z" fill="#003087"/>
<path d="M27.7231 6.58383H26.792C26.6995 6.58383 26.645 6.62999 26.6284 6.72226L25.8105 11.9569L25.7979 11.982C25.7979 12.0242 25.8147 12.0638 25.8483 12.1016C25.8817 12.1393 25.9238 12.1582 25.9741 12.1582H26.8047C26.9638 12.1582 27.0519 12.0786 27.0689 11.9191L27.8868 6.7726V6.7601C27.8867 6.64268 27.832 6.58395 27.7231 6.58395V6.58383Z" fill="#009CDE"/>
<path d="M16.4733 8.60999C16.4733 8.56815 16.4565 8.52822 16.4231 8.49053C16.3894 8.4528 16.3517 8.43384 16.3098 8.43384H15.3409C15.2485 8.43384 15.173 8.47599 15.1144 8.55965L13.7806 10.5227L13.227 8.63522C13.1848 8.50107 13.0926 8.43384 12.9501 8.43384H12.0063C11.9642 8.43384 11.9265 8.45276 11.8931 8.49053C11.8595 8.52822 11.8428 8.56818 11.8428 8.60999C11.8428 8.62691 11.9246 8.87426 12.0881 9.35241C12.2517 9.83065 12.4279 10.3466 12.6166 10.9003C12.8054 11.4539 12.9039 11.7476 12.9123 11.781C12.2244 12.7206 11.8805 13.224 11.8805 13.291C11.8805 13.4001 11.935 13.4546 12.0441 13.4546H13.013C13.1053 13.4546 13.1807 13.4127 13.2395 13.3288L16.4483 8.69799C16.4649 8.68134 16.4733 8.65211 16.4733 8.60995V8.60999Z" fill="#003087"/>
<path d="M25.4956 8.43385H24.5393C24.4217 8.43385 24.3507 8.57227 24.3255 8.84912C24.1071 8.51373 23.7089 8.34573 23.13 8.34573C22.526 8.34573 22.0121 8.57227 21.5886 9.02527C21.1649 9.47831 20.9531 10.0111 20.9531 10.6234C20.9531 11.1184 21.0978 11.5127 21.3872 11.8062C21.6765 12.1 22.0645 12.2466 22.5512 12.2466C22.7944 12.2466 23.0419 12.1962 23.2935 12.0956C23.5452 11.9949 23.7422 11.8608 23.885 11.6929C23.885 11.7013 23.8765 11.739 23.8599 11.8061C23.843 11.8733 23.8347 11.9238 23.8347 11.9571C23.8347 12.0915 23.8891 12.1584 23.9983 12.1584H24.8666C25.0258 12.1584 25.1182 12.0788 25.1433 11.9193L25.6592 8.63512C25.6675 8.58477 25.655 8.5387 25.6215 8.4967C25.5878 8.45489 25.546 8.43385 25.4956 8.43385ZM23.8535 10.9128C23.6396 11.1225 23.3817 11.2273 23.0797 11.2273C22.8363 11.2273 22.6394 11.1603 22.4883 11.026C22.3372 10.8921 22.2617 10.7075 22.2617 10.4723C22.2617 10.1622 22.3666 9.89989 22.5764 9.68596C22.7858 9.47204 23.0461 9.36508 23.3565 9.36508C23.5912 9.36508 23.7863 9.43431 23.9416 9.57266C24.0967 9.71108 24.1745 9.902 24.1745 10.1453C24.1744 10.4472 24.0674 10.7032 23.8535 10.9128Z" fill="#009CDE"/>
<path d="M11.2008 8.43385H10.2445C10.1269 8.43385 10.0557 8.57227 10.0305 8.84912C9.80401 8.51373 9.40551 8.34573 8.83509 8.34573C8.23109 8.34573 7.7172 8.57227 7.29363 9.02527C6.86993 9.47831 6.6582 10.0111 6.6582 10.6234C6.6582 11.1184 6.80293 11.5127 7.09236 11.8062C7.38178 12.1 7.76966 12.2466 8.25628 12.2466C8.49105 12.2466 8.73447 12.1962 8.98609 12.0956C9.23774 11.9949 9.43909 11.8608 9.59009 11.6929C9.55643 11.7935 9.53974 11.8817 9.53974 11.9571C9.53974 12.0915 9.59424 12.1584 9.70332 12.1584H10.5715C10.7308 12.1584 10.8232 12.0788 10.8484 11.9193L11.3643 8.63512C11.3725 8.58477 11.36 8.5387 11.3265 8.4967C11.293 8.45489 11.2511 8.43385 11.2008 8.43385ZM9.55866 10.919C9.3447 11.1248 9.08243 11.2273 8.77224 11.2273C8.52882 11.2273 8.33378 11.1603 8.18709 11.026C8.0402 10.8921 7.96686 10.7075 7.96686 10.4723C7.96686 10.1622 8.07166 9.89989 8.28147 9.68596C8.49105 9.47204 8.75113 9.36508 9.06163 9.36508C9.2964 9.36508 9.49143 9.43431 9.64678 9.5727C9.80186 9.71112 9.87955 9.90204 9.87955 10.1453C9.87955 10.4557 9.77259 10.7137 9.55866 10.919Z" fill="#003087"/>
<path d="M20.7708 6.91731C20.4478 6.69523 20.0264 6.58392 19.5063 6.58392H17.5055C17.3377 6.58392 17.2453 6.66365 17.2287 6.82292L16.4108 11.9568C16.4023 12.0072 16.4149 12.0533 16.4485 12.0953C16.4818 12.1373 16.524 12.1582 16.5743 12.1582H17.6061C17.7067 12.1582 17.7738 12.1037 17.8074 11.9946L18.034 10.535C18.0423 10.468 18.0717 10.4134 18.122 10.3714C18.1724 10.3295 18.2352 10.3021 18.3108 10.2895C18.3863 10.277 18.4574 10.2708 18.5247 10.2708C18.5918 10.2708 18.6714 10.275 18.7637 10.2833C18.856 10.2917 18.9149 10.2958 18.9399 10.2958C19.6614 10.2958 20.2275 10.0925 20.6387 9.68558C21.0497 9.27877 21.2552 8.71465 21.2552 7.99312C21.2553 7.49823 21.0937 7.13962 20.7708 6.91719V6.91731ZM19.4811 8.98731C19.2965 9.11311 19.0197 9.176 18.6506 9.176L18.2479 9.18862L18.4619 7.84219C18.4785 7.75 18.533 7.70385 18.6254 7.70385H18.8518C19.0364 7.70385 19.1831 7.71223 19.2924 7.72896C19.4012 7.74588 19.5063 7.79815 19.6069 7.88623C19.7076 7.97435 19.7579 8.10231 19.7579 8.27008C19.7579 8.62238 19.6655 8.86142 19.4811 8.98731Z" fill="#009CDE"/>
</g>
<defs>
<clipPath id="clip0_366_1783">
<rect width="30" height="19.2308" fill="white" transform="translate(0 0.384613)"/>
</clipPath>
</defs>
</svg>
