<svg width="45" height="46" viewBox="0 0 45 46" fill="none" xmlns="http://www.w3.org/2000/svg">
<path d="M30 6.125H1.875V30.5H30V6.125Z" stroke="#F4F4F4" stroke-width="2" stroke-linecap="round" stroke-linejoin="round"/>
<path d="M30 15.5H37.5L43.125 21.125V30.5H30V15.5Z" stroke="#F4F4F4" stroke-width="2" stroke-linecap="round" stroke-linejoin="round"/>
<path d="M10.3125 39.875C12.9013 39.875 15 37.7763 15 35.1875C15 32.5987 12.9013 30.5 10.3125 30.5C7.72367 30.5 5.625 32.5987 5.625 35.1875C5.625 37.7763 7.72367 39.875 10.3125 39.875Z" stroke="#F4F4F4" stroke-width="2" stroke-linecap="round" stroke-linejoin="round"/>
<path d="M34.6875 39.875C37.2763 39.875 39.375 37.7763 39.375 35.1875C39.375 32.5987 37.2763 30.5 34.6875 30.5C32.0987 30.5 30 32.5987 30 35.1875C30 37.7763 32.0987 39.875 34.6875 39.875Z" stroke="#F4F4F4" stroke-width="2" stroke-linecap="round" stroke-linejoin="round"/>
</svg>
