<svg width="31" height="31" viewBox="0 0 31 31" fill="none" xmlns="http://www.w3.org/2000/svg">
<path d="M24.25 9.25H20.5V8C20.5 6.67392 19.9732 5.40215 19.0355 4.46447C18.0979 3.52678 16.8261 3 15.5 3C14.1739 3 12.9021 3.52678 11.9645 4.46447C11.0268 5.40215 10.5 6.67392 10.5 8V9.25H6.75C6.41848 9.25 6.10054 9.3817 5.86612 9.61612C5.6317 9.85054 5.5 10.1685 5.5 10.5V24.25C5.5 25.2446 5.89509 26.1984 6.59835 26.9017C7.30161 27.6049 8.25544 28 9.25 28H21.75C22.7446 28 23.6984 27.6049 24.4017 26.9017C25.1049 26.1984 25.5 25.2446 25.5 24.25V10.5C25.5 10.1685 25.3683 9.85054 25.1339 9.61612C24.8995 9.3817 24.5815 9.25 24.25 9.25ZM13 8C13 7.33696 13.2634 6.70107 13.7322 6.23223C14.2011 5.76339 14.837 5.5 15.5 5.5C16.163 5.5 16.7989 5.76339 17.2678 6.23223C17.7366 6.70107 18 7.33696 18 8V9.25H13V8ZM23 24.25C23 24.5815 22.8683 24.8995 22.6339 25.1339C22.3995 25.3683 22.0815 25.5 21.75 25.5H9.25C8.91848 25.5 8.60054 25.3683 8.36612 25.1339C8.1317 24.8995 8 24.5815 8 24.25V11.75H10.5V13C10.5 13.3315 10.6317 13.6495 10.8661 13.8839C11.1005 14.1183 11.4185 14.25 11.75 14.25C12.0815 14.25 12.3995 14.1183 12.6339 13.8839C12.8683 13.6495 13 13.3315 13 13V11.75H18V13C18 13.3315 18.1317 13.6495 18.3661 13.8839C18.6005 14.1183 18.9185 14.25 19.25 14.25C19.5815 14.25 19.8995 14.1183 20.1339 13.8839C20.3683 13.6495 20.5 13.3315 20.5 13V11.75H23V24.25Z" fill="#F4F4F4"/>
</svg>
