<svg width="30" height="20" viewBox="0 0 30 20" fill="none" xmlns="http://www.w3.org/2000/svg">
<g clip-path="url(#clip0_366_1767)">
<path d="M1.53846 0.217377H28.4615C29.3112 0.217377 30 0.918164 30 1.78259V18.2174C30 19.0818 29.3112 19.7826 28.4615 19.7826H1.53846C0.688808 19.7826 0 19.0818 0 18.2174V1.78259C0 0.918164 0.688808 0.217377 1.53846 0.217377Z" fill="#0E4595"/>
<path d="M11.2766 13.8633L12.5597 6.20317H14.612L13.3279 13.8633H11.2766ZM20.7423 6.3683C20.3358 6.21311 19.6986 6.04657 18.903 6.04657C16.8751 6.04657 15.4467 7.08548 15.4346 8.57451C15.4231 9.67525 16.4543 10.2893 17.2327 10.6557C18.0316 11.0312 18.3001 11.2706 18.2963 11.6059C18.2913 12.1193 17.6584 12.3539 17.0686 12.3539C16.2471 12.3539 15.8108 12.2378 15.1368 11.9518L14.8723 11.8301L14.5843 13.5449C15.0636 13.7587 15.95 13.944 16.8703 13.9536C19.0276 13.9536 20.428 12.9266 20.444 11.3365C20.4517 10.4651 19.9049 9.80192 18.7209 9.25519C18.0036 8.90086 17.5643 8.66436 17.5689 8.30557C17.5689 7.98717 17.9408 7.64665 18.7442 7.64665C19.4153 7.63609 19.9015 7.78498 20.2803 7.94013L20.4642 8.02857L20.7423 6.3683ZM26.0235 6.20305H24.4376C23.9464 6.20305 23.5787 6.3395 23.363 6.8383L20.3151 13.8583H22.4702C22.4702 13.8583 22.8225 12.9144 22.9022 12.7072C23.1377 12.7072 25.2312 12.7104 25.5306 12.7104C25.5919 12.9786 25.7802 13.8583 25.7802 13.8583H27.6846L26.0235 6.20282V6.20305ZM23.5074 11.1495C23.6771 10.7082 24.3251 9.0082 24.3251 9.0082C24.3129 9.02862 24.4935 8.56469 24.5972 8.27708L24.7358 8.93757C24.7358 8.93757 25.1289 10.7661 25.211 11.1495H23.5074ZM9.53433 6.20305L7.5251 11.427L7.31098 10.3654C6.93694 9.14163 5.77156 7.81581 4.46875 7.15204L6.3059 13.8512L8.47729 13.8487L11.7082 6.20297H9.53433" fill="white"/>
<path d="M5.65089 6.20276H2.34162L2.31543 6.36214C4.88997 6.99621 6.59351 8.52852 7.30081 10.3695L6.5812 6.84932C6.45697 6.36429 6.0967 6.21955 5.65097 6.20261" fill="#F2AE14"/>
</g>
<defs>
<clipPath id="clip0_366_1767">
<rect width="30" height="19.5652" fill="white" transform="translate(0 0.217377)"/>
</clipPath>
</defs>
</svg>
